<?xml version="1.0" encoding="UTF-8"?>
<svg id="logosandtypes_com" data-name="logosandtypes com" xmlns="http://www.w3.org/2000/svg" viewBox="0 0 150 150">
  <defs>
    <style>
      .cls-1 {
        fill: none;
      }

      .cls-2 {
        fill: #0ba4db;
      }
    </style>
  </defs>
  <path class="cls-1" d="M0,0H150V150H0V0Z"/>
  <path class="cls-2" d="M127.41,14.13H22.08c-3.57,0-6.48,2.94-6.48,6.53v11.76c0,3.59,2.92,6.53,6.48,6.53H127.09c3.57,0,6.48-2.94,6.48-6.53v-11.76c.32-3.59-2.59-6.53-6.16-6.53Z"/>
  <path class="cls-2" d="M127.41,79.79H22.08c-3.57,0-6.48,2.94-6.48,6.53v11.76c0,3.59,2.92,6.53,6.48,6.53H127.09c3.57,0,6.48-2.94,6.48-6.53v-11.76c.32-3.59-2.59-6.53-6.16-6.53Z"/>
  <path class="cls-2" d="M81.39,112.78H22.08c-3.57,0-6.48,2.94-6.48,6.53v11.76c0,3.59,2.92,6.53,6.48,6.53h59.31c3.57,0,6.48-2.94,6.48-6.53v-11.76c0-3.59-2.92-6.53-6.48-6.53Z"/>
  <path class="cls-2" d="M133.9,47.12H22.08c-3.57,0-6.48,2.94-6.48,6.53v11.76c0,3.59,2.92,6.53,6.48,6.53h111.81c3.57,0,6.48-2.94,6.48-6.53v-11.76c0-3.59-2.92-6.53-6.48-6.53Z"/>
</svg>